<svg width="1440" height="516" viewBox="0 0 1440 516" fill="none" xmlns="http://www.w3.org/2000/svg">
<path d="M267.704 500.001C258.575 499.999 249.491 501.28 240.719 503.808C231.817 506.314 222.167 508.977 211.767 511.795C199.452 514.799 186.802 516.205 174.128 515.976C139.156 515.976 108.613 504.822 82.5013 482.513C56.3892 460.205 36.1109 429.665 21.6665 390.893C7.22218 352.111 0 308.134 0 258.962C0 210.31 7.60172 166.588 22.8052 127.795C38.0087 89.0029 58.8069 58.2081 85.1998 35.411C111.541 12.6035 141.449 1.19966 174.923 1.19966C190.23 1.0154 205.515 2.41648 220.534 5.38051C233.71 8.17815 245.622 11.0902 256.27 14.1166C265.205 17.1157 274.76 17.7709 284.02 16.0198C293.281 14.0972 302.151 10.627 310.257 5.7549C314.292 3.22766 317.079 3.22766 318.618 5.7549C320.157 8.28213 320.157 11.3242 318.618 14.881L224.371 179.963L305.718 233.955C308.755 235.473 310.278 238.261 310.289 242.317V506.085C310.289 509.626 309.259 512.169 307.169 513.698C304.626 515.258 301.85 514.463 298.808 511.42C289.22 503.808 278.852 500.001 267.704 500.001ZM105.697 121.337V313.719L209.1 133.505C218.23 116.761 223.045 101.161 223.544 86.7044C224.044 72.2482 220.367 60.4649 212.516 51.3544C204.654 42.2334 192.617 37.6678 176.405 37.6574C157.687 37.6574 141.215 45.0103 126.989 59.7161C112.763 74.4219 105.665 94.9622 105.697 121.337ZM105.697 390.566C105.697 409.286 109.497 425.38 117.099 438.848C124.701 452.316 134.33 462.581 145.988 469.643C156.747 476.448 169.074 480.374 181.787 481.047C193.444 481.047 201.81 478.509 206.885 473.434C209.276 471.191 211.183 468.482 212.49 465.475C213.796 462.468 214.474 459.225 214.482 455.946V290.896L175.703 265.046L108.036 383.608C107.88 384.242 107.598 384.838 107.207 385.36C106.815 385.883 106.323 386.322 105.759 386.65L105.697 390.566Z" fill="#DD2C37"/>
<path d="M440.201 465.014C440.201 469.58 437.918 471.863 433.353 471.863H364.938C360.362 471.863 358.08 469.58 358.09 465.014V65.0557C358.09 56.4444 356.696 49.3463 353.91 43.7614C351.408 38.5784 347.922 33.9315 343.646 30.08C340.599 27.5528 339.075 24.7656 339.075 21.7183C339.075 19.1755 341.103 17.4127 345.159 16.3831L432.605 2.70164C437.659 1.68763 440.201 3.73125 440.201 8.78572V465.014Z" fill="#DD2C37"/>
<path d="M573.333 79.5076C573.931 78.9072 574.642 78.4307 575.425 78.1056C576.208 77.7806 577.048 77.6133 577.895 77.6133C578.743 77.6133 579.582 77.7806 580.365 78.1056C581.148 78.4307 581.859 78.9072 582.458 79.5076C615.402 107.9 640.495 139.709 657.737 174.934C674.979 210.16 683.594 246.56 683.584 284.136C683.584 319.611 675.473 354.711 659.25 389.438C643.027 424.164 617.94 455.723 583.987 484.115C582.667 485.094 581.067 485.623 579.424 485.623C577.781 485.623 576.181 485.094 574.861 484.115C541.907 455.723 516.814 423.784 499.582 388.299C482.351 352.813 473.735 316.569 473.735 279.565C473.735 243.58 481.847 208.35 498.069 173.873C514.292 139.397 539.38 107.942 573.333 79.5076ZM541.402 155.543C530.764 168.231 525.44 186.988 525.429 211.813C525.429 231.574 528.98 253.372 536.083 277.209C543.405 301.54 553.894 324.802 567.28 346.396C580.407 368.072 597.123 387.358 616.712 403.431C622.597 396.185 626.853 387.757 629.191 378.72C632.058 368.188 633.465 357.312 633.372 346.396C633.372 326.127 629.821 304.333 622.718 281.016C615.28 256.966 604.796 233.966 591.521 212.578C578.289 190.773 561.324 171.467 541.402 155.543Z" fill="#DD2C37"/>
<path d="M854.113 440.674C852.145 438.333 851.068 435.371 851.071 432.313V420.191L796.32 483.31C793.782 486.856 790.486 487.111 786.43 484.074L721.836 437.648C720.493 436.687 719.385 435.434 718.596 433.983C717.807 432.532 717.358 430.921 717.281 429.271V173.021L695.989 154.769C692.433 151.243 691.934 147.936 694.429 144.894L736.998 84.0532C739.525 80.018 742.567 79.498 746.123 82.4932C754.734 89.0973 762.845 95.561 770.457 101.884C778.069 108.208 785.926 114.926 794.027 122.04C795.274 123.036 796.268 124.313 796.929 125.766C797.591 127.218 797.9 128.807 797.833 130.401V345.638C797.833 364.899 802.512 379.459 811.872 389.319C821.231 399.178 834.287 405.642 851.04 408.71V105.347C850.913 103.551 851.467 101.772 852.591 100.364C853.715 98.9569 855.327 98.0238 857.108 97.7502L922.497 84.0532C927.572 83.0132 930.109 85.0412 930.109 90.1373V394.342L952.915 414.872C956.034 417.992 956.206 421.221 953.679 424.762L904.34 479.472C901.221 483.013 898.257 483.279 895.215 480.237C888.612 474.152 881.769 467.819 874.687 461.236C867.606 454.652 860.747 447.799 854.113 440.674Z" fill="#DD2C37"/>
<path d="M1089.05 421.768C1091.58 425.325 1091.32 428.622 1088.28 431.659L1032.78 480.316C1029.74 483.353 1026.7 483.353 1023.66 480.316C1010.9 468.146 999.205 454.916 988.687 440.769C986.691 438.438 985.586 435.476 985.567 432.407V155.55C985.567 139.836 979.229 130.964 966.552 128.936C961.998 127.938 959.705 125.395 959.705 121.339V115.255C959.667 113.583 960.07 111.93 960.872 110.463C961.674 108.995 962.848 107.764 964.275 106.893C1002.29 79.0206 1029.41 45.5634 1045.62 6.52123C1046.26 4.85747 1047.42 3.44325 1048.93 2.48591C1050.43 1.52858 1052.2 1.07847 1053.98 1.20154H1059.32C1063.87 1.20154 1066.15 3.47918 1066.15 8.03445V91.6828H1095.79C1100.36 91.6828 1102.65 93.9657 1102.63 98.5313V122.852C1102.63 127.428 1100.35 129.711 1095.79 129.701H1066.15V394.312L1089.05 421.768Z" fill="#DD2C37"/>
<path d="M1212.67 128.931C1214.63 131.277 1215.7 134.235 1215.71 137.292V465.022C1215.71 469.588 1213.43 471.871 1208.86 471.871H1139.68C1135.12 471.871 1132.84 469.588 1132.84 465.022V173.032L1111.54 154.78C1108.5 151.754 1107.98 148.462 1109.98 144.905L1154.13 84.7975C1156.65 80.2422 1159.7 79.7222 1163.25 83.2375C1172.1 90.0268 1180.6 97.259 1188.73 104.906C1197.09 112.821 1205.07 120.829 1212.67 128.931ZM1128.97 47.5753C1125.93 44.0393 1125.93 40.7424 1128.97 37.6847L1167 1.94465C1171.04 -1.0922 1174.08 -0.572191 1176.11 3.50467C1179.85 10.7981 1185.88 16.6696 1193.26 20.2281C1200.85 24.2396 1209.4 26.0803 1217.97 25.5478C1220.5 25.0486 1222.28 25.6882 1223.29 27.451C1224.31 29.2138 1223.79 31.3823 1221.73 33.9095C1214.9 44.3349 1204.94 52.3214 1193.28 56.7171C1182.07 61.195 1169.88 62.6371 1157.93 60.8979C1147.14 59.5443 1137.02 54.8918 1128.97 47.5753Z" fill="#DD2C37"/>
<path d="M1388.45 211.049C1384.89 215.125 1381.85 214.605 1379.32 209.488C1370.04 192.818 1359.62 176.81 1348.13 161.58V465.02C1348.13 469.586 1345.85 471.868 1341.3 471.868H1274.38C1269.82 471.868 1267.54 469.586 1267.54 465.02V173.031L1246.25 154.779C1242.7 151.253 1242.18 147.946 1244.69 144.904L1287.28 84.0628C1289.8 80.0276 1292.85 79.5076 1296.4 82.5028C1305.01 89.1069 1313.25 95.5706 1321.11 101.894C1328.97 108.217 1336.7 114.936 1344.31 122.049C1345.55 123.047 1346.54 124.324 1347.2 125.777C1347.86 127.229 1348.17 128.817 1348.1 130.411V144.857L1389.15 82.456C1389.55 81.5383 1390.18 80.7406 1390.98 80.1415C1391.79 79.5423 1392.73 79.1626 1393.72 79.0395C1395.73 78.7899 1397.5 79.9287 1399.04 82.456C1406.13 92.0969 1413.1 102.237 1419.94 112.876C1426.79 123.516 1432.99 134.16 1438.57 144.81C1440.6 147.93 1440.35 151.159 1437.82 154.685L1388.45 211.049Z" fill="#DD2C37"/>
</svg>
