<svg width="267" height="90" viewBox="0 0 267 90" fill="none" xmlns="http://www.w3.org/2000/svg">
<path d="M226.258 56.8228L226.91 54.5679C227.688 51.8857 227.399 49.406 226.095 47.5843C224.894 45.9062 222.895 44.918 220.466 44.8032L174.471 44.2211C174.328 44.2183 174.188 44.182 174.062 44.1151C173.935 44.0481 173.827 43.9525 173.745 43.8359C173.665 43.7153 173.613 43.5776 173.595 43.4338C173.577 43.29 173.593 43.1439 173.641 43.0073C173.72 42.782 173.864 42.5847 174.053 42.4398C174.244 42.295 174.471 42.2089 174.71 42.1922L221.132 41.6039C226.639 41.3511 232.601 36.8862 234.688 31.4414L237.335 24.529C237.444 24.2367 237.469 23.92 237.407 23.6144C234.401 10.1035 222.334 0 207.906 0C194.613 0 183.326 8.57372 179.277 20.4907C176.541 18.4387 173.13 17.4954 169.728 17.8496C163.35 18.4825 158.222 23.6134 157.591 29.9872C157.429 31.5788 157.547 33.1864 157.942 34.737C147.523 35.0405 139.168 43.5697 139.168 54.0541C139.17 54.99 139.239 55.9246 139.375 56.8507C139.406 57.0644 139.512 57.2604 139.674 57.4027C139.837 57.545 140.046 57.6239 140.262 57.6253L225.178 57.6359C225.186 57.6364 225.194 57.6364 225.202 57.6359C225.442 57.6315 225.675 57.5503 225.865 57.404C226.055 57.2573 226.193 57.0538 226.258 56.8228Z" fill="black"/>
<path d="M241.581 25.0302C241.155 25.0302 240.73 25.041 240.307 25.0623C240.239 25.0672 240.172 25.0819 240.108 25.1059C239.997 25.1437 239.897 25.2079 239.816 25.2928C239.736 25.3778 239.677 25.481 239.645 25.5937L237.836 31.836C237.059 34.5185 237.348 36.9959 238.653 38.8178C239.852 40.4977 241.852 41.4837 244.28 41.5987L254.086 42.1869C254.223 42.1915 254.358 42.2281 254.48 42.2939C254.601 42.3598 254.705 42.4529 254.784 42.5661C254.865 42.6872 254.917 42.8258 254.935 42.9706C254.953 43.1154 254.937 43.2624 254.888 43.3998C254.809 43.6246 254.665 43.8216 254.476 43.9664C254.287 44.1111 254.059 44.1975 253.821 44.2149L243.633 44.8032C238.101 45.0581 232.141 49.5208 230.055 54.9656L229.319 56.888C229.289 56.9682 229.277 57.0547 229.286 57.1402C229.296 57.2258 229.325 57.3083 229.372 57.3801C229.42 57.4519 229.483 57.5118 229.558 57.5543C229.633 57.5965 229.717 57.6208 229.803 57.6244C229.813 57.6244 229.821 57.6244 229.83 57.6244H264.887C265.091 57.6262 265.289 57.5614 265.453 57.4395C265.616 57.3176 265.735 57.146 265.792 56.9501C266.413 54.7355 266.727 52.4465 266.725 50.1464C266.721 36.2761 255.465 25.0302 241.581 25.0302Z" fill="black"/>
<path d="M29.6865 68.0054H35.6671V84.3313H46.1181V89.5673H29.6865V68.0054Z" fill="black"/>
<path d="M52.3122 78.8484V78.7872C52.3122 72.5959 57.3061 67.5736 63.9647 67.5736C70.6234 67.5736 75.5548 72.5338 75.5548 78.7252V78.7872C75.5548 84.9786 70.56 89.9978 63.9035 89.9978C57.2471 89.9978 52.3122 85.0398 52.3122 78.8484ZM69.4507 78.8484V78.7872C69.4507 75.6802 67.2016 72.9643 63.9035 72.9643C60.6356 72.9643 58.4464 75.6137 58.4464 78.7252V78.7872C58.4464 81.8947 60.6968 84.6093 63.9647 84.6093C67.2628 84.6093 69.4507 81.9598 69.4507 78.8484Z" fill="black"/>
<path d="M82.8745 80.1111V68.0045H88.9475V79.9887C88.9475 83.0957 90.52 84.5778 92.9234 84.5778C95.3273 84.5778 96.8994 83.1613 96.8994 80.1421V68.0045H102.973V79.9537C102.973 86.9156 98.9973 89.9636 92.8623 89.9636C86.7272 89.9636 82.8745 86.8567 82.8745 80.108" fill="black"/>
<path d="M112.126 68.0063H120.449C128.156 68.0063 132.626 72.4416 132.626 78.6631V78.7261C132.626 84.9467 128.094 89.5682 120.326 89.5682H112.126V68.0063ZM120.542 84.2675C124.119 84.2675 126.491 82.2995 126.491 78.8143V78.7531C126.491 75.3043 124.119 73.3012 120.542 73.3012H118.107V84.2693L120.542 84.2675Z" fill="black"/>
<path d="M141.318 68.0054H158.58V73.2431H147.299V76.9074H157.502V81.8663H147.299V89.5673H141.318V68.0054Z" fill="black"/>
<path d="M166.902 68.0054H172.882V84.3313H183.334V89.5673H166.902V68.0054Z" fill="black"/>
<path d="M198.961 67.8511H204.724L213.911 89.5673H207.5L205.926 85.7164H197.602L196.062 89.5673H189.774L198.961 67.8511ZM204.201 81.0661L201.796 74.9354L199.36 81.0661H204.201Z" fill="black"/>
<path d="M221.615 68.0045H231.818C235.119 68.0045 237.398 68.8682 238.847 70.3463C240.112 71.5788 240.759 73.2463 240.759 75.3686V75.4293C240.759 78.7243 238.997 80.9118 236.32 82.0507L241.468 89.5682H234.561L230.215 83.0368H227.595V89.5682H221.615V68.0045ZM231.542 78.3554C233.576 78.3554 234.748 77.3694 234.748 75.7982V75.737C234.748 74.0425 233.515 73.1811 231.509 73.1811H227.595V78.3594L231.542 78.3554Z" fill="black"/>
<path d="M249.388 68.0054H266.742V73.0889H255.307V76.3524H265.665V81.0661H255.307V84.4856H266.897V89.5673H249.388V68.0054Z" fill="black"/>
<path d="M16.5924 81.3755C15.7549 83.2677 13.9928 84.608 11.6513 84.608C8.38219 84.608 6.13299 81.8973 6.13299 78.7864V78.7243C6.13299 75.6169 8.32105 72.9634 11.5892 72.9634C14.0529 72.9634 15.929 74.4779 16.7209 76.5377H23.0249C22.0153 71.4059 17.5024 67.5745 11.6513 67.5745C4.99181 67.5745 0 72.5999 0 78.7864V78.8475C0 85.0389 4.93067 90 11.5892 90C17.2847 90 21.7365 86.3149 22.9109 81.3764L16.5924 81.3755Z" fill="black"/>
</svg>
