<svg width="1137" height="240" viewBox="0 0 1137 240" fill="none" xmlns="http://www.w3.org/2000/svg">
<g clip-path="url(#clip0_14_12)">
<path d="M89.69 59.1H157.49L147 99.3C145.558 104.664 142.396 109.406 138 112.8C133.629 116.191 128.232 117.99 122.7 117.9H91.19C84.3286 117.805 77.6353 120.024 72.19 124.2C66.611 128.519 62.563 134.512 60.64 141.3C59.2509 146.288 59.0965 151.539 60.19 156.6C61.1946 161.216 63.1757 165.563 66 169.35C68.8616 173.101 72.5599 176.131 76.8 178.2C81.2736 180.417 86.2072 181.548 91.2 181.5H110.4C112.115 181.47 113.811 181.85 115.35 182.606C116.889 183.362 118.226 184.474 119.25 185.85C120.372 187.178 121.143 188.767 121.492 190.47C121.841 192.174 121.758 193.937 121.25 195.6L109.25 240H88.25C74.4277 240.138 60.7813 236.894 48.5 230.55C36.7059 224.53 26.3895 215.976 18.29 205.5C10.2596 195.035 4.67303 182.905 1.93999 170C-0.959496 156.442 -0.596185 142.39 2.99999 129L4.19999 124.5C9.27472 105.704 20.3931 89.1004 35.84 77.25C43.4151 71.5063 51.8533 67.0004 60.84 63.9C70.1169 60.6835 79.8714 59.0606 89.69 59.1V59.1Z" fill="black"/>
<path d="M123.89 240L183 18.6C184.442 13.2365 187.604 8.49403 192 5.1C196.369 1.71141 201.762 -0.0874352 207.29 1.28057e-07H270C283.822 -0.138024 297.469 3.1062 309.75 9.45C321.532 15.461 331.83 24.0167 339.898 34.4976C347.966 44.9786 353.603 57.1224 356.4 70.05C359.402 83.6051 358.99 97.6938 355.2 111.05L354 115.55C351.47 124.994 347.417 133.962 342 142.1C333.984 154.167 323.103 164.058 310.329 170.89C297.554 177.722 283.286 181.282 268.8 181.25H214.5L225.3 140.75C226.801 135.496 229.957 130.866 234.3 127.55C238.671 124.159 244.068 122.36 249.6 122.45H267C274.008 122.458 280.819 120.133 286.359 115.841C291.9 111.55 295.855 105.537 297.6 98.75C298.985 93.9473 299.123 88.8707 298 84C296.983 79.3809 294.988 75.0332 292.15 71.25C289.267 67.4809 285.577 64.4056 281.35 62.25C276.92 59.9468 271.993 58.7624 267 58.8H233.4L189.6 221.7C188.099 226.954 184.943 231.584 180.6 234.9C176.326 238.257 171.035 240.056 165.6 240H123.89Z" fill="black"/>
<path d="M498 121.8L498.9 118.5C499.105 117.822 499.145 117.105 499.014 116.408C498.883 115.712 498.587 115.057 498.15 114.5C497.696 113.953 497.121 113.519 496.47 113.232C495.819 112.946 495.11 112.815 494.4 112.85H396.9C392.935 112.906 389.019 111.978 385.5 110.15C382.217 108.467 379.348 106.076 377.1 103.15C374.867 100.198 373.328 96.7795 372.6 93.15C371.792 89.2795 371.894 85.274 372.9 81.45L378.9 58.65H510.9C518.731 58.5632 526.461 60.4185 533.4 64.05C540.012 67.4766 545.81 72.2854 550.4 78.15C554.94 84.0472 558.117 90.8778 559.7 98.15C561.387 105.827 561.233 113.794 559.25 121.4L535.55 209.6C533.256 218.334 528.118 226.054 520.946 231.541C513.775 237.028 504.98 239.969 495.95 239.9L398.45 239.6C390.427 239.649 382.502 237.827 375.307 234.277C368.111 230.727 361.843 225.547 357 219.15C352.334 212.918 349.06 205.756 347.4 198.15C345.602 190.174 345.808 181.877 348 174L349.2 169.5C350.587 163.917 352.976 158.631 356.25 153.9C359.432 149.22 363.329 145.069 367.8 141.6C372.24 138.176 377.204 135.491 382.5 133.65C387.996 131.734 393.779 130.77 399.6 130.8H481.5L475.5 153.3C473.992 158.551 470.837 163.178 466.5 166.5C462.224 169.855 456.934 171.653 451.5 171.6H414.9C411.493 171.6 409.293 173.3 408.3 176.7C407.985 177.697 407.929 178.757 408.139 179.781C408.349 180.805 408.818 181.758 409.5 182.55C410.139 183.367 410.96 184.022 411.898 184.465C412.835 184.908 413.863 185.125 414.9 185.1H474C476.047 185.146 478.051 184.513 479.7 183.3C481.269 182.135 482.34 180.421 482.7 178.5L483.3 176.1L498 121.8Z" fill="black"/>
<path d="M672.59 59.1C686.494 58.9463 700.225 62.1902 712.59 68.55C724.36 74.5628 734.659 83.0991 742.75 93.55C750.804 104.075 756.389 116.276 759.09 129.25C761.982 142.856 761.523 156.961 757.75 170.35L742.75 226.75C741.826 230.622 739.536 234.031 736.3 236.35C733.122 238.714 729.261 239.977 725.3 239.95H693C691.269 239.99 689.553 239.622 687.992 238.874C686.43 238.126 685.067 237.02 684.014 235.646C682.96 234.272 682.246 232.668 681.929 230.966C681.612 229.264 681.702 227.511 682.19 225.85L700.19 157.75C701.583 152.967 701.738 147.909 700.64 143.05C699.623 138.433 697.632 134.086 694.8 130.3C691.912 126.537 688.223 123.462 684 121.3C679.554 118.991 674.61 117.807 669.6 117.85H636L606.88 226.8C605.967 230.677 603.675 234.089 600.43 236.4C597.169 238.787 593.221 240.051 589.18 240H557.08C555.367 240.03 553.671 239.65 552.134 238.894C550.597 238.137 549.262 237.025 548.24 235.65C547.121 234.32 546.351 232.732 546.002 231.029C545.653 229.326 545.735 227.563 546.24 225.9L590.64 59.1H672.59Z" fill="black"/>
<path d="M849.28 116.25C846.887 118.139 845.112 120.698 844.18 123.6L830.68 174.6C830.31 175.939 830.254 177.345 830.518 178.708C830.781 180.072 831.357 181.356 832.199 182.46C833.042 183.564 834.129 184.458 835.374 185.072C836.62 185.687 837.991 186.004 839.38 186H963.58L954 221.7C952.499 226.954 949.343 231.584 945 234.9C940.726 238.257 935.435 240.057 930 240H816.88C809.066 240.091 801.347 238.29 794.38 234.75C787.723 231.391 781.912 226.571 777.38 220.65C772.858 214.704 769.685 207.845 768.08 200.55C766.377 192.944 766.635 185.029 768.83 177.55L787.13 109.45C789.071 102.179 792.214 95.284 796.43 89.05C804.592 76.8211 816.534 67.6013 830.43 62.8C837.513 60.3029 844.97 59.0347 852.48 59.05H932.58C940.411 58.9612 948.142 60.8166 955.08 64.45C961.694 67.874 967.492 72.6832 972.08 78.55C976.63 84.46 979.761 91.3372 981.23 98.65C982.829 106.292 982.624 114.201 980.63 121.75L975.23 142.15C973.06 150.887 967.937 158.606 960.73 164C953.63 169.411 944.926 172.297 936 172.2H845.4L851.4 150C852.71 144.737 855.779 140.079 860.1 136.8C864.471 133.409 869.868 131.61 875.4 131.7H912C915.4 131.7 917.6 130 918.6 126.6L919.8 122.1C920.071 121.082 920.106 120.016 919.903 118.983C919.699 117.949 919.263 116.976 918.626 116.137C917.989 115.298 917.17 114.615 916.23 114.141C915.289 113.667 914.253 113.413 913.2 113.4H857.4C854.444 113.377 851.573 114.385 849.28 116.25V116.25Z" fill="black"/>
<path d="M963.28 240L1023.58 13.5C1024.51 9.59616 1026.78 6.14392 1030 3.75001C1033.23 1.26857 1037.21 -0.0523892 1041.28 6.15371e-06H1073.38C1075.14 -0.0522443 1076.89 0.314953 1078.48 1.0713C1080.07 1.82765 1081.46 2.95146 1082.53 4.35001C1083.65 5.6798 1084.42 7.26828 1084.77 8.97105C1085.12 10.6738 1085.04 12.4369 1084.53 14.1L1039.53 181.2C1037.43 189.767 1033.82 197.893 1028.88 205.2C1024.12 212.251 1018.24 218.482 1011.48 223.65C1004.7 228.79 997.16 232.839 989.13 235.65C980.826 238.57 972.082 240.041 963.28 240V240Z" fill="black"/>
<path d="M1094.83 21.06C1094.82 17.447 1095.77 13.896 1097.58 10.77C1099.39 7.62029 1101.99 5.00411 1105.14 3.18652C1108.28 1.36893 1111.85 0.414524 1115.48 0.420004C1119.09 0.405755 1122.64 1.35133 1125.77 3.16C1128.93 4.94688 1131.55 7.55569 1133.35 10.71C1135.15 13.8255 1136.1 17.3546 1136.12 20.9504C1136.14 24.5463 1135.22 28.0854 1133.46 31.22C1131.66 34.4092 1129.04 37.0629 1125.88 38.9093C1122.72 40.7558 1119.12 41.7289 1115.46 41.7289C1111.8 41.7289 1108.2 40.7558 1105.04 38.9093C1101.88 37.0629 1099.26 34.4092 1097.46 31.22C1095.71 28.1212 1094.8 24.6183 1094.83 21.06V21.06ZM1097.71 21.06C1097.71 24.1821 1098.54 27.2486 1100.1 29.9505C1101.66 32.6524 1103.91 34.8942 1106.62 36.45C1109.31 38.012 1112.37 38.8347 1115.49 38.8347C1118.6 38.8347 1121.66 38.012 1124.35 36.45C1127.04 34.8934 1129.28 32.6636 1130.84 29.98C1132.44 27.2838 1133.27 24.2031 1133.24 21.07C1133.26 17.9546 1132.44 14.892 1130.85 12.21C1129.3 9.51921 1127.07 7.27905 1124.39 5.71C1121.69 4.14161 1118.62 3.31549 1115.5 3.31549C1112.38 3.31549 1109.31 4.14161 1106.61 5.71C1103.92 7.26311 1101.69 9.48954 1100.12 12.17C1098.52 14.8585 1097.69 17.9325 1097.71 21.06V21.06ZM1123.85 16.06C1123.87 17.4437 1123.47 18.8002 1122.68 19.94C1121.87 21.097 1120.73 21.9742 1119.4 22.45L1125.94 33.3H1121.33L1115.64 23.58H1111.94V33.3H1107.87V8.85001H1115C1118 8.85001 1120.26 9.44 1121.68 10.63C1122.43 11.3128 1123.02 12.1574 1123.39 13.0999C1123.77 14.0424 1123.92 15.058 1123.85 16.07V16.06ZM1111.94 20.2H1114.94C1116.22 20.2631 1117.47 19.8577 1118.47 19.06C1118.9 18.7109 1119.24 18.2692 1119.47 17.7685C1119.7 17.2677 1119.81 16.7211 1119.8 16.17C1119.86 15.6196 1119.78 15.0641 1119.57 14.5506C1119.37 14.0371 1119.04 13.5806 1118.62 13.22C1117.5 12.5325 1116.2 12.2173 1114.89 12.32H1111.98L1111.94 20.2Z" fill="black"/>
</g>
<defs>
<clipPath id="clip0_14_12">
<rect width="1136.12" height="240" fill="white"/>
</clipPath>
</defs>
</svg>
